<?xml version="1.0" encoding="UTF-8"?>
<svg width="146px" height="16px" viewBox="0 0 146 16" version="1.1" xmlns="http://www.w3.org/2000/svg" xmlns:xlink="http://www.w3.org/1999/xlink">
    <title>logo_white</title>
    <g id="Page-1" stroke="none" stroke-width="1" fill="none" fill-rule="evenodd">
        <g id="First_key" transform="translate(-107.000000, -40.000000)" fill="#FFFFFF" fill-rule="nonzero">
            <g id="logo_white" transform="translate(107.000000, 40.000000)">
                <polygon id="Path" points="13.1373913 0.633043478 9.02086957 0.633043478 3.15652174 6.58608696 3.15652174 0.633043478 0 0.633043478 0 15.466087 3.15652174 15.466087 3.15652174 9.21565217 8.84869565 15.4713043 13.1791304 15.4713043 6.25043478 7.86434783"></polygon>
                <path d="M20.8121739,0.173913043 C17.9520249,0.100266565 15.2770494,1.58404734 13.8252916,4.04946318 C12.3735338,6.51487903 12.3735338,9.57381663 13.8252916,12.0392325 C15.2770494,14.5046483 17.9520249,15.9884291 20.8121739,15.9147826 C23.672323,15.9884291 26.3472984,14.5046483 27.7990562,12.0392325 C29.2508141,9.57381663 29.2508141,6.51487903 27.7990562,4.04946318 C26.3472984,1.58404734 23.672323,0.100266565 20.8121739,0.173913043 L20.8121739,0.173913043 Z M20.8121739,12.8417391 C19.5270212,12.8545828 18.2912097,12.3475728 17.3853764,11.4358447 C16.479543,10.5241166 15.9805597,9.28504226 16.0017391,8 C16.0017391,5.34327023 18.1554442,3.18956522 20.8121739,3.18956522 C23.4689037,3.18956522 25.6226087,5.34327023 25.6226087,8 C25.640973,9.28692911 25.138923,10.526752 24.2303087,11.4383132 C23.3216944,12.3498744 22.0835037,12.8559364 20.7965217,12.8417391 L20.8121739,12.8417391 Z" id="Shape"></path>
                <path d="M82.826087,0.612173913 L79.7269565,0.612173913 L73.2834783,15.4713043 L76.826087,15.4713043 L78.0521739,12.4921739 L84.4226087,12.4921739 L85.6486957,15.4713043 L89.3008696,15.4713043 L82.826087,0.612173913 Z M79.2313043,9.6226087 L81.24,4.74434783 L83.2434783,9.6226087 L79.2313043,9.6226087 Z" id="Shape"></path>
                <path d="M51.9078261,0.173913043 C49.047677,0.100266565 46.3727016,1.58404734 44.9209438,4.04946318 C43.4691859,6.51487903 43.4691859,9.57381663 44.9209438,12.0392325 C46.3727016,14.5046483 49.047677,15.9884291 51.9078261,15.9147826 C54.5239857,15.9636309 56.9845299,14.6753363 58.4347826,12.4973913 L56.0869565,10.4730435 C55.2208405,11.9743228 53.6040224,12.8827824 51.8713043,12.8417391 C51.115529,12.8381559 50.3708534,12.6595766 49.6956522,12.32 L58.4608696,3.54956522 C56.9707374,1.40810409 54.5165515,0.143885699 51.9078261,0.173913043 Z M47.6504348,10.306087 C47.2814113,9.59376043 47.0915843,8.80221798 47.0973913,8 C47.0845111,6.723612 47.5883837,5.49626941 48.494405,4.59712673 C49.4004263,3.69798407 50.6315734,3.20347976 51.9078261,3.22608696 C52.6951122,3.21668489 53.4732459,3.39556619 54.1773913,3.74782609 L47.6504348,10.306087 Z" id="Shape"></path>
                <polygon id="Path" points="31.6382609 0.648695652 34.893913 0.648695652 34.893913 12.4921739 42.2608696 12.4921739 42.2608696 15.4504348 31.6382609 15.4504348"></polygon>
                <path d="M60.5895652,13.2956522 L62.5147826,10.9895652 C63.7211816,12.1050166 65.2914725,12.7446275 66.933913,12.7895652 C68.2695652,12.7895652 69.0678261,12.2678261 69.0678261,11.3495652 C69.0678261,10.5252174 68.546087,10.1026087 66.0886957,9.46608696 C63.1043478,8.70434783 61.1843478,7.90086957 61.1843478,4.90086957 C61.1843478,2.21391304 63.3391304,0.44 66.3652174,0.44 C68.3609671,0.407172522 70.3056826,1.07140174 71.8643478,2.31826087 L70.1686957,4.77565217 C69.066299,3.90577824 67.7249706,3.39254271 66.3234783,3.30434783 C65.0713043,3.30434783 64.5078261,3.87826087 64.4191304,4.63478261 C64.3095652,5.50086957 65.0504348,5.92347826 67.6121739,6.58086957 C70.6121739,7.36347826 72.3078261,8.6 72.3078261,11.0626087 C72.3078261,14.0052174 70.0643478,15.6540263 66.8713043,15.6540263 C64.5589586,15.665247 62.3231774,14.8259006 60.5895652,13.2956522 Z" id="Path"></path>
                <path d="M104.008696,15.893913 C102.604421,15.9053155 101.222082,15.5453314 100.001739,14.8504348 C98.8119616,14.1753522 97.8233308,13.1957254 97.1373913,12.0121739 C96.4415557,10.8035986 96.0813042,9.4310405 96.093913,8.03652174 C96.0813042,6.64200297 96.4415557,5.2694449 97.1373913,4.06086957 C97.8225976,2.8754015 98.8112922,1.89391045 100.001739,1.2173913 C101.222082,0.522494715 102.604421,0.162510614 104.008696,0.173913043 C106.167121,0.127676878 108.236905,1.03189607 109.669565,2.64695652 L109.857391,2.85565217 L107.478261,5.13043478 L107.28,4.89565217 C106.485201,3.90628899 105.277582,3.34003708 104.008696,3.36173913 C103.192743,3.35070664 102.38772,3.55016558 101.671304,3.94086957 C100.980349,4.31921993 100.41057,4.88538157 100.027826,5.57391304 C99.614397,6.32969365 99.4057584,7.18043546 99.4226087,8.04173913 C99.4052111,8.90144477 99.6139122,9.75064247 100.027826,10.5043478 C100.409785,11.1948038 100.979637,11.7628467 101.671304,12.1426087 C102.38772,12.5333127 103.192743,12.7327716 104.008696,12.7217391 C105.429158,12.7371307 106.771227,12.0719143 107.61913,10.9321739 L107.817391,10.6869565 L110.196522,12.9304348 L110.024348,13.1443478 C109.304319,14.0172464 108.396543,14.7163587 107.368696,15.1895652 C106.312827,15.6646195 105.166458,15.9049297 104.008696,15.893913 Z" id="Path"></path>
                <path d="M117.281739,15.9356522 C116.22575,15.9537462 115.183693,15.6927822 114.26087,15.1791304 C113.384078,14.6918848 112.661159,13.9689657 112.173913,13.0921739 C111.675121,12.1924782 111.41975,11.1781903 111.433043,10.1495652 C111.422285,9.12455207 111.677551,8.11427075 112.173913,7.2173913 C112.659349,6.33923614 113.382714,5.6158711 114.26087,5.13043478 C116.133785,4.12212993 118.387954,4.12212993 120.26087,5.13043478 C121.13682,5.6187953 121.859466,6.34144117 122.347826,7.2173913 C122.842371,8.11476395 123.095833,9.12501664 123.083478,10.1495652 C123.098608,11.1777511 122.845028,12.192071 122.347826,13.0921739 C121.857489,13.9666289 121.135325,14.6887934 120.26087,15.1791304 C119.350808,15.6868301 118.323769,15.9476369 117.281739,15.9356522 L117.281739,15.9356522 Z M117.281739,7.44173913 C116.834197,7.43728788 116.393359,7.55064633 116.003478,7.77043478 C115.608809,7.99189233 115.283615,8.31889205 115.064348,8.71478261 C114.820397,9.15857235 114.698008,9.65892937 114.709565,10.1652174 C114.6985,10.6754154 114.822708,11.1794484 115.069565,11.626087 C115.283556,12.0268179 115.607574,12.3580762 116.003478,12.5808696 C116.801062,13.012243 117.762417,13.012243 118.56,12.5808696 C118.945386,12.3612734 119.263033,12.0400168 119.478261,11.6521739 C119.719379,11.1980851 119.839751,10.6896489 119.827826,10.1756522 C119.838035,9.66848929 119.717659,9.16722146 119.478261,8.72 C119.263145,8.32762471 118.943487,8.0025489 118.554783,7.78086957 C118.167256,7.55877734 117.728395,7.44186776 117.281739,7.44173913 Z" id="Shape"></path>
                <path d="M132.328696,15.6121739 L132.328696,9.23652174 C132.361633,8.75057125 132.206604,8.27054103 131.895652,7.89565217 C131.577653,7.57842513 131.138694,7.41310292 130.690435,7.44173913 C130.100691,7.42247117 129.538364,7.69098717 129.182609,8.16173913 C128.765563,8.71430689 128.55513,9.39544428 128.587826,10.0869565 L128.587826,15.6121739 L125.337391,15.6121739 L125.337391,4.71826087 L128.426087,4.71826087 L128.426087,5.64695652 C128.723691,5.32371772 129.077181,5.05683308 129.469565,4.85913043 C130.084338,4.54952962 130.763858,4.39037911 131.452174,4.39478261 C132.608151,4.32152256 133.735433,4.77396932 134.52,5.62608696 C135.255559,6.55860628 135.626482,7.72701219 135.563478,8.91304348 L135.563478,15.6121739 L132.328696,15.6121739 Z" id="Path"></path>
                <path d="M139.10087,15.6121739 L139.10087,7.56695652 L137.253913,7.56695652 L137.253913,4.71826087 L139.10087,4.71826087 L139.10087,4.44173913 C139.046048,3.33277456 139.463037,2.25239473 140.248696,1.46782609 C141.057241,0.734076485 142.121112,0.346362854 143.212174,0.387826087 L145.194783,0.387826087 L145.194783,3.46086957 L143.54087,3.46086957 C143.22011,3.44138913 142.90477,3.5502568 142.664348,3.76347826 C142.442503,3.98474885 142.326562,4.29075732 142.346087,4.60347826 L142.346087,4.71826087 L144.886957,4.71826087 L144.886957,7.56695652 L142.346087,7.56695652 L142.346087,15.6121739 L139.10087,15.6121739 Z" id="Path"></path>
            </g>
        </g>
    </g>
</svg>